# xmcd CD database file generated by OrangeCD 5.2
#
# Track frame offsets:
#	150
#	16742
#	30831
#	47276
#	61505
#	77358
#	92823
#	108262
#	123764
#	139226
#
# Disc length: 2062 seconds
#
# Revision: 0
# Processed by: cddbd v1.5.1PL0 Copyright (c) Steve Scherf et al.
# Submitted via: OrangeCD 5.2
#
DISCID=60080c0a
DTITLE=The Deans - Sweet Nothings
DYEAR=2002
DGENRE=Country
TTITLE0=Sweet Nothings
TTITLE1=Bye Bye Love
TTITLE2=Little Old Wine Drinker Me
TTITLE3=Poison Ivy
TTITLE4=57 Chevrolet
TTITLE5=Burning Ring Of Fire
TTITLE6=Heartaches By The Number
TTITLE7=I Knew The Bride
TTITLE8=Dancing On A Saturday Night
TTITLE9=Island In The Sun
EXTD=
EXTT0=
EXTT1=
EXTT2=
EXTT3=
EXTT4=
EXTT5=
EXTT6=
EXTT7=
EXTT8=
EXTT9=
PLAYORDER=
